{"title":"Rise of the Planet of the Apes 2011 TS XViD AC3","uid":6587682,"size":1511104318,"categoryP":"video","categoryS":"movies","magnet":"?xt=urn:btih:01087e76fd5ad0ba965246766472ed44f568a1dd&amp;dn=Rise+of+the+Planet+of+the+Apes+2011+TS+XViD+AC3&amp;tr=udp%3A%2F%2Ftracker.openbittorrent.com%3A80&amp;tr=udp%3A%2F%2Fopen.demonii.com%3A1337&amp;tr=udp%3A%2F%2Ftracker.coppersurfer.tk%3A6969&amp;tr=udp%3A%2F%2Fexodus.desync.com%3A6969","seeders":1,"leechers":0,"uploader":"Zelulzseeder","files":4,"time":1312679930,"description":"[img]http://img15.imageshack.us/img15/773/apesr.jpg[/img]\n\nRise of the Planet of the Apes (2011)\n\nAction | Drama | Sci-Fi\n\nIMDB: http://www.imdb.com/title/tt1318514/\n\nAn origin story set in present day San Francisco, where man's own experiments\nwith genetic engineering lead to the development of intelligence in apes and the\nonset of a war for supremacy.\n\n   General\n\n      Complete name :Rise Of The Apes 2011 TS XViD AC3-SCR0N\n      Format : AVI\n      Format/Info : Audio Video Interleave\n      Format profile : OpenDML\n      Format settings : rec\n      File size : 1.41 GiB\n      Duration : 1h 37mn\n      Overall bit rate : 2 056 Kbps\n      Writing application : AVI-Mux GUI 1.17.8.3, Feb 16 201019:42:50\n\n   Video #0\n\n      ID : 0\n      Format : MPEG-4 Visual\n      Format profile : Advanced Simple@L5\n      Format settings, BVOP : 2\n      Format settings, QPel : No\n      Format settings, GMC : No warppoints\n      Format settings, Matrix : Default (MPEG)\n      Codec ID : XVID\n      Codec ID/Hint : XviD\n      Duration : 1h 37mn\n      Bit rate : 1 859 Kbps\n      Width : 720 pixels\n      Height : 320 pixels\n      Display aspect ratio : 2.25:1\n      Frame rate : 25.000 fps\n      Color space : YUV\n      Chroma subsampling : 4:2:0\n      Bit depth : 8 bits\n      Scan type : Progressive\n      Compression mode : Lossy\n      Bits/(Pixel*Frame) : 0.323\n      Stream size : 1.27 GiB (90%)\n      Writing library : XviD 1.2.1 (UTC 2008-12-04)\n\n   Audio #1\n\n      ID : 1\n      Format : AC-3\n      Format/Info : Audio Coding 3\n      Mode extension : CM (complete main)\n      Codec ID : 2000\n      Duration : 1h 37mn\n      Bit rate mode : Constant\n      Bit rate : 192 Kbps\n      Channel(s) : 2 channels\n      Channel positions : Front: L R\n      Sampling rate : 44.1 KHz\n      Bit depth : 16 bits\n      Compression mode : Lossy\n      Delay relative to video : 104ms\n      Stream size : 135 MiB (9%)\n      Alignment : Split accross interleaves\n      Interleave, duration : 70 ms (1.74 video frames)\n      Interleave, preload duration : 208 ms\n\nScreens:\n\n[IMG]http://img89.imageshack.us/img89/6037/52275975.jpg[/IMG]\n      \nThanks to all p2p groups.....\n","torrent":{"xt":"urn:btih:01087e76fd5ad0ba965246766472ed44f568a1dd","amp;dn":"Rise+of+the+Planet+of+the+Apes+2011+TS+XViD+AC3","amp;tr":["udp%3A%2F%2Ftracker.openbittorrent.com%3A80","udp%3A%2F%2Fopen.demonii.com%3A1337","udp%3A%2F%2Ftracker.coppersurfer.tk%3A6969","udp%3A%2F%2Fexodus.desync.com%3A6969"],"infoHash":"01087e76fd5ad0ba965246766472ed44f568a1dd","infoHashBuffer":{"type":"Buffer","data":[1,8,126,118,253,90,208,186,150,82,70,118,100,114,237,68,245,104,161,221]},"announce":[],"urlList":[]}}